# 3ds Max Wavefront OBJ Exporter v0.99 - (c)2007 guruware
# File Created: 18.04.2025 17:07:39

mtllib pino.mtl

#
# object Cylinder003
#

v  51.8681 6.0324 7.5886
v  51.8681 6.8602 7.7489
v  51.9717 5.9238 7.6064
v  52.0206 6.0324 7.6994
v  52.0357 5.9238 7.8034
v  51.9624 6.0324 7.8787
v  51.8681 5.9238 7.9252
v  51.7738 6.0324 7.8787
v  51.7005 5.9238 7.8034
v  51.7156 6.0324 7.6994
v  51.7645 5.9238 7.6064
v  51.8681 2.2283 6.7529
v  52.4728 1.9270 6.9167
v  51.8681 2.4327 7.7489
v  51.3697 2.9314 7.0629
v  51.8681 2.7857 6.9085
v  51.8681 3.3068 7.2546
v  51.6782 3.6155 7.4876
v  51.6465 4.1127 7.4440
v  51.4723 3.5933 7.2042
v  51.8681 3.6836 7.0716
v  51.8681 4.3182 7.4712
v  51.5698 4.4353 7.3383
v  51.8681 4.4018 7.2435
v  51.8681 4.8198 7.4634
v  51.7270 4.9201 7.5547
v  51.6690 5.2063 7.4749
v  51.8681 5.1911 7.4123
v  51.8681 5.5053 7.5633
v  51.7567 5.5077 7.5956
v  51.8074 6.0959 7.6654
v  51.8681 6.1831 7.6689
v  51.3979 3.3068 7.5962
v  51.0688 2.7857 7.4892
v  51.2239 3.6836 7.5396
v  51.6039 4.3182 7.6631
v  51.5966 4.8198 7.6607
v  51.3874 4.4018 7.5928
v  51.6916 5.5053 7.6916
v  51.5479 5.1911 7.6449
v  51.7920 6.1831 7.7242
v  51.0616 2.9314 8.0110
v  51.5608 3.6155 7.8488
v  51.5096 4.1127 7.8654
v  51.2277 3.5933 7.9570
v  51.3854 4.4353 7.9058
v  51.6397 4.9201 7.8231
v  51.5460 5.2063 7.8536
v  51.6878 5.5077 7.8075
v  51.7699 6.0959 7.7809
v  51.5775 3.3068 8.1489
v  51.3741 2.7857 8.4289
v  51.4700 3.6836 8.2969
v  51.7048 4.3182 7.9737
v  51.7003 4.8198 7.9799
v  51.5710 4.4018 8.1578
v  51.7590 5.5053 7.8991
v  51.6702 5.1911 8.0213
v  51.8211 6.1831 7.8137
v  51.8681 2.9314 8.5969
v  51.8681 3.6155 8.0720
v  51.8681 4.1127 8.1259
v  51.8681 3.5933 8.4223
v  51.8681 4.4353 8.2565
v  51.8681 4.9201 7.9890
v  51.8681 5.2063 8.0876
v  51.8681 5.5077 7.9385
v  51.8681 6.0959 7.8522
v  52.1587 3.3068 8.1489
v  52.3621 2.7857 8.4289
v  52.2662 3.6836 8.2969
v  52.0314 4.3182 7.9737
v  52.0359 4.8198 7.9799
v  52.1652 4.4018 8.1578
v  51.9772 5.5053 7.8991
v  52.0660 5.1911 8.0213
v  51.9151 6.1831 7.8137
v  52.6745 2.9314 8.0110
v  52.1754 3.6155 7.8488
v  52.2266 4.1127 7.8654
v  52.5085 3.5933 7.9570
v  52.3508 4.4353 7.9058
v  52.0965 4.9201 7.8231
v  52.1902 5.2063 7.8536
v  52.0483 5.5077 7.8075
v  51.9663 6.0959 7.7809
v  52.3383 3.3068 7.5962
v  52.6674 2.7857 7.4892
v  52.5123 3.6836 7.5396
v  52.1323 4.3182 7.6631
v  52.1396 4.8198 7.6607
v  52.3488 4.4018 7.5928
v  52.0446 5.5053 7.6916
v  52.1882 5.1911 7.6449
v  51.9442 6.1831 7.7242
v  52.3665 2.9314 7.0629
v  52.0580 3.6154 7.4876
v  52.0897 4.1127 7.4440
v  52.2639 3.5933 7.2042
v  52.1664 4.4353 7.3383
v  52.0092 4.9201 7.5547
v  52.0672 5.2063 7.4749
v  51.9795 5.5077 7.5956
v  51.9288 6.0959 7.6654
v  52.8154 2.2283 7.4411
v  52.8465 1.9270 8.0668
v  52.4536 2.2283 8.5548
v  51.8681 1.9270 8.7777
v  51.2826 2.2283 8.5548
v  50.8897 1.9270 8.0668
v  50.9208 2.2283 7.4411
v  51.2634 1.9270 6.9167
v  51.8681 2.3998 7.6220
v  51.9427 2.3998 7.6462
v  51.9872 1.5651 7.5850
v  51.8681 1.5651 7.5463
v  51.9888 2.3998 7.7097
v  52.0608 1.5651 7.6863
v  51.9888 2.3998 7.7882
v  52.0608 1.5651 7.8116
v  51.9427 2.3998 7.8517
v  51.9872 1.5651 7.9129
v  51.8681 2.3998 7.8759
v  51.8681 1.5651 7.9516
v  51.7935 2.3998 7.8517
v  51.7490 1.5651 7.9129
v  51.7473 2.3998 7.7882
v  51.6753 1.5651 7.8116
v  51.7473 2.3998 7.7097
v  51.6753 1.5651 7.6863
v  51.7935 2.3998 7.6462
v  51.7490 1.5651 7.5850
v  52.0584 1.2425 7.4870
v  52.1761 1.2425 7.6489
v  52.1761 1.2425 7.8490
v  51.6778 1.2425 7.4870
v  52.0584 1.2425 8.0109
v  51.8681 1.2425 8.0728
v  51.6778 1.2425 8.0109
v  51.5601 1.2425 7.8490
v  51.5601 1.2425 7.6489
v  51.8681 1.2425 7.4251
# 142 vertices

vn 0.0000 0.1902 -0.9817
vn 0.0000 1.0000 -0.0000
vn 0.5776 0.1850 -0.7951
vn 0.9337 0.1902 -0.3034
vn 0.9346 0.1850 0.3037
vn 0.5771 0.1902 0.7942
vn -0.0000 0.1850 0.9827
vn -0.5771 0.1902 0.7942
vn -0.9346 0.1850 0.3037
vn -0.9337 0.1902 -0.3034
vn -0.5776 0.1850 -0.7951
vn 0.0000 -0.9796 0.2010
vn -0.2593 -0.8975 0.3568
vn 0.0000 -1.0000 0.0000
vn 0.4675 -0.6060 0.6435
vn -0.0000 -0.5568 0.8306
vn 0.5094 -0.4991 0.7011
vn -0.0000 -0.5301 0.8480
vn 0.0000 -0.5301 0.8480
vn 0.5152 -0.4814 0.7091
vn 0.0000 -0.4676 0.8839
vn -0.0000 -0.4676 0.8839
vn 0.5269 -0.4432 0.7252
vn -0.0000 -0.4334 0.9012
vn 0.0000 -0.4334 0.9012
vn 0.5402 -0.3940 0.7436
vn -0.0000 -0.4661 0.8847
vn 0.7900 -0.5568 0.2567
vn 0.8065 -0.5301 0.2620
vn 0.8407 -0.4676 0.2732
vn 0.8571 -0.4334 0.2785
vn 0.8414 -0.4661 0.2734
vn 0.7565 -0.6060 -0.2458
vn 0.8242 -0.4991 -0.2678
vn 0.8336 -0.4814 -0.2709
vn 0.8526 -0.4432 -0.2770
vn 0.8741 -0.3940 -0.2840
vn 0.4882 -0.5568 -0.6720
vn 0.4984 -0.5301 -0.6860
vn 0.5196 -0.4676 -0.7151
vn 0.5297 -0.4334 -0.7291
vn 0.5200 -0.4661 -0.7158
vn -0.0000 -0.6060 -0.7954
vn 0.0000 -0.6060 -0.7954
vn 0.0000 -0.4991 -0.8666
vn -0.0000 -0.4991 -0.8666
vn 0.0000 -0.4814 -0.8765
vn 0.0000 -0.4432 -0.8964
vn 0.0000 -0.3940 -0.9191
vn -0.0000 -0.3940 -0.9191
vn -0.4882 -0.5568 -0.6720
vn -0.4984 -0.5301 -0.6860
vn -0.5196 -0.4676 -0.7151
vn -0.5297 -0.4334 -0.7291
vn -0.5200 -0.4661 -0.7158
vn -0.7565 -0.6060 -0.2458
vn -0.8242 -0.4991 -0.2678
vn -0.8336 -0.4814 -0.2709
vn -0.8526 -0.4432 -0.2770
vn -0.8741 -0.3940 -0.2840
vn -0.7900 -0.5568 0.2567
vn -0.8065 -0.5301 0.2620
vn -0.8407 -0.4676 0.2732
vn -0.8571 -0.4334 0.2785
vn -0.8414 -0.4661 0.2734
vn -0.4675 -0.6060 0.6435
vn -0.5094 -0.4991 0.7011
vn -0.5152 -0.4814 0.7091
vn -0.5269 -0.4432 0.7252
vn -0.5402 -0.3940 0.7436
vn -0.0000 0.4193 -0.9079
vn 0.5420 0.3871 -0.7459
vn 0.8634 0.4193 -0.2805
vn 0.8769 0.3871 0.2849
vn 0.5336 0.4193 0.7345
vn -0.0000 0.3871 0.9220
vn -0.5336 0.4193 0.7345
vn -0.8769 0.3871 0.2849
vn -0.8634 0.4193 -0.2805
vn -0.5420 0.3871 -0.7459
vn 0.0000 0.3461 -0.9382
vn -0.0000 0.3461 -0.9382
vn 0.5464 0.3684 -0.7521
vn 0.8923 0.3461 -0.2899
vn 0.8842 0.3684 0.2873
vn 0.5515 0.3461 0.7590
vn -0.0000 0.3684 0.9297
vn -0.5515 0.3461 0.7590
vn -0.8842 0.3684 0.2873
vn -0.8923 0.3461 -0.2899
vn -0.5464 0.3684 -0.7521
vn 0.0000 0.3252 -0.9457
vn 0.5586 0.3111 -0.7689
vn 0.8994 0.3252 -0.2922
vn 0.9039 0.3111 0.2937
vn 0.9038 0.3111 0.2937
vn 0.5558 0.3252 0.7650
vn -0.0000 0.3111 0.9504
vn -0.5558 0.3252 0.7650
vn -0.9038 0.3111 0.2937
vn -0.8994 0.3252 -0.2922
vn -0.5586 0.3111 -0.7689
vn -0.0000 0.2782 -0.9605
vn 0.5635 0.2844 -0.7756
vn 0.9135 0.2782 -0.2968
vn 0.9118 0.2844 0.2963
vn 0.5646 0.2782 0.7771
vn 0.0000 0.2844 0.9587
vn -0.5646 0.2782 0.7771
vn -0.9118 0.2844 0.2963
vn -0.9135 0.2782 -0.2968
vn -0.5635 0.2844 -0.7756
vn 0.0000 0.2513 -0.9679
vn 0.5684 0.2549 -0.7823
vn 0.9205 0.2513 -0.2991
vn 0.9196 0.2549 0.2988
vn 0.5689 0.2513 0.7831
vn -0.0000 0.2549 0.9670
vn -0.5689 0.2513 0.7831
vn -0.9196 0.2549 0.2988
vn -0.9205 0.2513 -0.2991
vn -0.5684 0.2549 -0.7823
vn -0.1911 -0.9796 0.0621
vn -0.4195 -0.8975 -0.1363
vn 0.2593 -0.8975 0.3568
vn 0.1911 -0.9796 0.0621
vn 0.4195 -0.8975 -0.1363
vn 0.1181 -0.9796 -0.1626
vn 0.0000 -0.8975 -0.4411
vn -0.1181 -0.9796 -0.1626
vn 0.0000 0.6772 -0.7358
vn 0.4325 0.6772 -0.5953
vn 0.5722 0.2289 -0.7875
vn 0.0000 0.2289 -0.9734
vn 0.6998 0.6772 -0.2274
vn 0.9258 0.2289 -0.3008
vn 0.6998 0.6772 0.2274
vn 0.9258 0.2289 0.3008
vn 0.4325 0.6772 0.5953
vn 0.5722 0.2289 0.7875
vn -0.0000 0.6772 0.7358
vn -0.0000 0.2289 0.9734
vn -0.4325 0.6772 0.5953
vn -0.5722 0.2289 0.7875
vn -0.6998 0.6772 0.2274
vn -0.9258 0.2289 0.3008
vn -0.6998 0.6772 -0.2274
vn -0.9258 0.2289 -0.3008
vn -0.4325 0.6772 -0.5953
vn -0.5722 0.2289 -0.7875
vn -0.0000 -1.0000 -0.0000
vn 0.0000 0.3516 -0.9362
vn -0.5503 0.3516 -0.7574
vn -0.8903 0.3516 -0.2893
vn -0.8903 0.3516 0.2893
vn -0.5503 0.3516 0.7574
vn -0.0000 0.3516 0.9362
vn 0.5503 0.3516 0.7574
vn 0.8903 0.3516 0.2893
vn 0.8903 0.3516 -0.2893
vn 0.5503 0.3516 -0.7574
# 161 vertex normals

vt 0.8438 0.8097 0.0000
vt 0.8437 0.8097 0.0000
vt 0.9258 0.5734 0.0000
# 3 texture coords

o Cylinder003
g Cylinder003
usemtl mapa_preeliminar_tres_R_Antler_mso
s off
f 1/1/1 2/2/2 3/2/3 
f 3/2/3 2/2/2 4/2/4 
f 4/2/4 2/2/2 5/2/5 
f 5/2/5 2/2/2 6/2/6 
f 6/2/6 2/2/2 7/2/7 
f 7/2/7 2/2/2 8/2/8 
f 8/2/8 2/2/2 9/2/9 
f 9/2/9 2/2/2 10/1/10 
f 10/1/10 2/2/2 11/2/11 
f 11/2/11 2/1/2 1/1/1 
f 12/1/12 13/2/13 14/1/14 
f 15/2/15 16/1/16 17/1/16 18/2/15 
f 19/2/17 20/2/17 21/1/18 22/1/19 
f 23/2/20 24/1/21 25/1/22 26/2/20 
f 27/2/23 28/1/24 29/1/25 30/2/23 
f 31/2/26 11/2/26 1/1/27 32/1/27 
f 33/2/28 34/1/28 15/2/15 18/2/15 
f 35/1/29 20/2/17 19/2/17 36/2/29 
f 37/1/30 38/2/30 23/2/20 26/2/20 
f 39/2/31 40/2/31 27/2/23 30/2/23 
f 10/1/32 11/2/26 31/2/26 41/2/32 
f 42/2/33 34/1/28 33/2/28 43/2/33 
f 44/2/34 45/2/34 35/1/29 36/2/29 
f 46/2/35 38/2/30 37/1/30 47/2/35 
f 48/2/36 40/2/31 39/2/31 49/2/36 
f 50/2/37 9/2/37 10/1/32 41/2/32 
f 51/2/38 52/2/38 42/2/33 43/2/33 
f 53/2/39 45/2/34 44/2/34 54/2/39 
f 55/2/40 56/2/40 46/2/35 47/2/35 
f 57/2/41 58/2/41 48/2/36 49/2/36 
f 8/2/42 9/2/37 50/2/37 59/2/42 
f 60/2/43 52/2/38 51/2/38 61/2/44 
f 62/2/45 63/2/46 53/2/39 54/2/39 
f 64/2/47 56/2/40 55/2/40 65/2/47 
f 66/2/48 58/2/41 57/2/41 67/2/48 
f 68/2/49 7/2/50 8/2/42 59/2/42 
f 69/2/51 70/2/51 60/2/43 61/2/44 
f 71/2/52 63/2/46 62/2/45 72/2/52 
f 73/2/53 74/2/53 64/2/47 65/2/47 
f 75/2/54 76/2/54 66/2/48 67/2/48 
f 6/2/55 7/2/50 68/2/49 77/2/55 
f 78/2/56 70/2/51 69/2/51 79/2/56 
f 80/2/57 81/2/57 71/2/52 72/2/52 
f 82/2/58 74/2/53 73/2/53 83/2/58 
f 84/2/59 76/2/54 75/2/54 85/2/59 
f 86/2/60 5/2/60 6/2/55 77/2/55 
f 87/2/61 88/2/61 78/2/56 79/2/56 
f 89/2/62 81/2/57 80/2/57 90/2/62 
f 91/2/63 92/2/63 82/2/58 83/2/58 
f 93/2/64 94/2/64 84/2/59 85/2/59 
f 4/2/65 5/2/60 86/2/60 95/2/65 
f 96/2/66 88/2/61 87/2/61 97/2/66 
f 98/2/67 99/2/67 89/2/62 90/2/62 
f 100/2/68 92/2/63 91/2/63 101/2/68 
f 102/2/69 94/2/64 93/2/64 103/2/69 
f 104/2/70 3/2/70 4/2/65 95/2/65 
f 17/1/16 16/1/16 96/2/66 97/2/66 
f 21/1/18 99/2/67 98/2/67 22/2/19 
f 25/2/22 24/1/21 100/2/68 101/2/68 
f 29/2/25 28/1/24 102/2/69 103/2/69 
f 1/1/27 3/2/70 104/2/70 32/2/27 
f 17/1/71 97/2/72 13/2/72 12/1/71 
f 13/2/72 97/2/72 87/2/73 105/2/73 
f 87/2/73 79/2/74 106/2/74 105/2/73 
f 106/2/74 79/2/74 69/2/75 107/2/75 
f 69/2/75 61/2/76 108/2/76 107/2/75 
f 108/2/76 61/2/76 51/2/77 109/2/77 
f 51/2/77 43/2/78 110/2/78 109/2/77 
f 110/2/78 43/2/78 33/2/79 111/2/79 
f 33/2/79 18/2/80 112/2/80 111/2/79 
f 112/2/80 18/2/80 17/1/71 12/1/71 
f 16/1/81 22/2/82 98/2/83 96/2/83 
f 98/2/83 90/2/84 88/2/84 96/2/83 
f 88/2/84 90/2/84 80/2/85 78/2/85 
f 80/2/85 72/2/86 70/2/86 78/2/85 
f 70/2/86 72/2/86 62/2/87 60/2/87 
f 62/2/87 54/2/88 52/2/88 60/2/87 
f 52/2/88 54/2/88 44/2/89 42/2/89 
f 44/2/89 36/2/90 34/1/90 42/2/89 
f 34/1/90 36/2/90 19/2/91 15/2/91 
f 19/2/91 22/1/82 16/1/81 15/2/91 
f 25/2/92 101/2/93 99/2/93 21/1/92 
f 99/2/93 101/2/93 91/2/94 89/2/94 
f 91/2/94 83/2/95 81/2/96 89/2/94 
f 81/2/96 83/2/95 73/2/97 71/2/97 
f 73/2/97 65/2/98 63/2/98 71/2/97 
f 63/2/98 65/2/98 55/2/99 53/2/99 
f 55/2/99 47/2/100 45/2/100 53/2/99 
f 45/2/100 47/2/100 37/1/101 35/1/101 
f 37/1/101 26/2/102 20/2/102 35/1/101 
f 20/2/102 26/2/102 25/1/92 21/1/92 
f 29/2/103 103/2/104 100/2/104 24/1/103 
f 100/2/104 103/2/104 93/2/105 92/2/105 
f 93/2/105 85/2/106 82/2/106 92/2/105 
f 82/2/106 85/2/106 75/2/107 74/2/107 
f 75/2/107 67/2/108 64/2/108 74/2/107 
f 64/2/108 67/2/108 57/2/109 56/2/109 
f 57/2/109 49/2/110 46/2/110 56/2/109 
f 46/2/110 49/2/110 39/2/111 38/2/111 
f 39/2/111 30/2/112 23/2/112 38/2/111 
f 23/2/112 30/2/112 29/1/103 24/1/103 
f 28/1/113 32/2/113 104/2/114 102/2/114 
f 104/2/114 95/2/115 94/2/115 102/2/114 
f 94/2/115 95/2/115 86/2/116 84/2/116 
f 86/2/116 77/2/117 76/2/117 84/2/116 
f 76/2/117 77/2/117 68/2/118 66/2/118 
f 68/2/118 59/2/119 58/2/119 66/2/118 
f 58/2/119 59/2/119 50/2/120 48/2/120 
f 50/2/120 41/2/121 40/2/121 48/2/120 
f 40/2/121 41/2/121 31/2/122 27/2/122 
f 31/2/122 32/1/113 28/1/113 27/2/122 
f 105/2/123 106/2/124 14/2/14 
f 13/2/13 105/2/123 14/2/14 
f 112/2/125 12/1/12 14/2/14 
f 111/2/126 112/2/125 14/2/14 
f 110/2/127 111/2/126 14/2/14 
f 109/2/128 110/2/127 14/2/14 
f 108/2/129 109/2/128 14/2/14 
f 107/2/130 108/2/129 14/2/14 
f 106/2/124 107/2/130 14/2/14 
f 113/3/131 114/3/132 115/3/133 116/3/134 
f 114/3/132 117/3/135 118/3/136 115/3/133 
f 117/3/135 119/3/137 120/3/138 118/3/136 
f 119/3/137 121/3/139 122/3/140 120/3/138 
f 121/3/139 123/3/141 124/3/142 122/3/140 
f 123/3/141 125/3/143 126/3/144 124/3/142 
f 125/3/143 127/3/145 128/3/146 126/3/144 
f 127/3/145 129/3/147 130/3/148 128/3/146 
f 113/3/131 131/3/149 129/3/147 117/3/135 
f 129/3/147 127/3/145 125/3/143 117/3/135 
f 125/3/143 123/3/141 121/3/139 117/3/135 
f 121/3/139 119/3/137 117/3/135 
f 114/3/132 113/3/131 117/3/135 
f 129/3/147 131/3/149 132/3/150 130/3/148 
f 131/3/149 113/3/131 116/3/134 132/3/150 
f 133/3/151 134/3/151 135/3/151 136/3/151 
f 135/3/151 137/3/151 138/3/151 136/3/151 
f 138/3/151 139/3/151 140/3/151 136/3/151 
f 140/3/151 141/3/151 136/3/151 
f 142/3/151 133/3/151 136/3/151 
f 132/3/150 116/3/134 142/3/152 136/3/153 
f 130/3/148 132/3/150 136/3/153 141/3/154 
f 128/3/146 130/3/148 141/3/154 140/3/155 
f 126/3/144 128/3/146 140/3/155 139/3/156 
f 124/3/142 126/3/144 139/3/156 138/3/157 
f 122/3/140 124/3/142 138/3/157 137/3/158 
f 120/3/138 122/3/140 137/3/158 135/3/159 
f 118/3/136 120/3/138 135/3/159 134/3/160 
f 115/3/133 118/3/136 134/3/160 133/3/161 
f 116/3/134 115/3/133 133/3/161 142/3/152 
# 126 polygons - 24 triangles

