# 3ds Max Wavefront OBJ Exporter v0.99 - (c)2007 guruware
# File Created: 18.04.2025 04:26:17

mtllib Leon_Kennedy_pierna_izquierda.mtl

#
# object Object_5
#

v  0.0744 1.6478 0.0136
v  -0.0229 1.9769 0.0115
v  0.3663 1.6478 -0.3135
v  0.3601 2.2109 -0.3901
v  0.6313 1.6478 0.0136
v  0.6603 1.9769 -0.1872
v  0.6603 1.9769 0.0985
v  0.3725 1.9769 0.3759
v  0.6127 3.1364 -0.1872
v  -0.0250 2.9231 0.0094
v  0.3767 3.0887 0.3945
v  0.3767 3.0536 -0.3798
v  0.0703 3.2130 -0.0258
v  0.3353 3.2647 0.2620
v  0.6106 3.1384 0.1564
v  0.5051 3.3165 0.1316
v  0.3767 1.6478 0.3014
v  0.5009 3.3144 -0.0589
v  0.2628 3.2751 -0.2183
# 19 vertices

vn -0.6999 -0.7133 0.0372
vn -0.9752 -0.1541 -0.1588
vn -0.0650 -0.5512 -0.8318
vn -0.1240 -0.0682 -0.9899
vn 0.8196 -0.5718 0.0350
vn 0.8467 -0.1284 -0.5164
vn 0.9176 -0.0590 0.3932
vn -0.0009 -0.1093 0.9940
vn 0.8096 0.3535 -0.4687
vn -0.9901 0.1399 -0.0140
vn -0.0661 0.3294 0.9419
vn -0.1742 0.2601 -0.9497
vn -0.9563 0.2904 -0.0335
vn -0.1366 0.5693 0.8107
vn 0.8755 0.2634 0.4052
vn 0.7483 0.5399 0.3854
vn -0.0035 -0.6573 0.7536
vn 0.6397 0.6706 -0.3756
vn -0.2560 0.4872 -0.8349
# 19 vertex normals

vt 0.2266 0.5686 0.0000
vt 0.2266 0.6196 0.0000
vt 0.2552 0.5686 0.0000
vt 0.2630 0.6549 0.0000
vt 0.2969 0.5686 0.0000
vt 0.2656 0.5686 0.0000
vt 0.2786 0.6196 0.0000
vt 0.2604 0.6549 0.0000
vt 0.3047 0.6196 0.0000
vt 0.1927 0.6196 0.0000
vt 0.2786 0.7961 0.0000
vt 0.2760 0.6667 0.0000
vt 0.2266 0.6667 0.0000
vt 0.2526 0.7176 0.0000
vt 0.2266 0.7608 0.0000
vt 0.1901 0.7882 0.0000
vt 0.2604 0.7804 0.0000
vt 0.2292 0.8078 0.0000
vt 0.3203 0.8157 0.0000
vt 0.3099 0.7961 0.0000
vt 0.3073 0.8235 0.0000
vt 0.3229 0.5686 0.0000
vt 0.3307 0.6196 0.0000
vt 0.2891 0.8235 0.0000
vt 0.3307 0.7882 0.0000
vt 0.2760 0.8157 0.0000
vt 0.1979 0.5686 0.0000
vt 0.2526 0.6235 0.0000
vt 0.2031 0.8157 0.0000
vt 0.2474 0.8157 0.0000
# 30 texture coords

o Object_5
g Object_5
usemtl leon_Material
s off
f 1/1/1 2/2/2 3/3/3 
f 4/4/4 3/3/3 2/2/2 
f 5/5/5 3/6/3 6/7/6 
f 4/8/4 6/7/6 3/6/3 
f 7/9/7 5/5/5 6/7/6 
f 1/1/1 8/10/8 2/2/2 
f 9/11/9 7/9/7 6/7/6 
f 5/12/5 1/13/1 3/14/3 
f 10/15/10 8/10/8 11/16/11 
f 4/4/4 10/15/10 12/17/12 
f 11/16/11 13/18/13 10/15/10 
f 14/19/14 15/20/15 16/21/16 
f 17/22/17 7/9/7 8/23/8 
f 18/24/18 15/20/15 9/11/9 
f 13/18/13 12/17/12 10/15/10 
f 11/25/11 7/9/7 15/20/15 
f 19/26/19 9/11/9 12/17/12 
f 9/11/9 4/8/4 12/17/12 
f 1/1/1 17/27/17 8/10/8 
f 9/11/9 15/20/15 7/9/7 
f 5/12/5 17/28/17 1/13/1 
f 10/15/10 2/2/2 8/10/8 
f 4/4/4 2/2/2 10/15/10 
f 11/16/11 14/29/14 13/18/13 
f 14/19/14 11/25/11 15/20/15 
f 17/22/17 5/5/5 7/9/7 
f 18/24/18 16/21/16 15/20/15 
f 13/18/13 19/30/19 12/17/12 
f 11/25/11 8/23/8 7/9/7 
f 19/26/19 18/24/18 9/11/9 
f 9/11/9 6/7/6 4/8/4 
# 0 polygons - 31 triangles

#
# object Object_3
#

v  0.6405 2.0018 0.0136
v  0.3403 1.9976 0.3014
v  0.6612 1.7761 -0.0506
v  0.1705 0.3393 -0.0278
v  0.3548 0.3393 -0.2142
v  0.3527 0.1488 -0.0361
v  0.5246 0.3372 -0.0278
v  0.3507 0.3351 0.1523
v  0.0939 2.0018 0.0156
v  0.0525 1.7761 -0.0506
v  0.3507 2.1736 0.1295
v  0.3507 2.0039 -0.3011
v  0.3548 2.1778 -0.0920
v  0.3444 1.7099 -0.3632
v  0.3527 0.6353 -0.2142
v  0.5266 0.6333 -0.0133
v  0.1664 0.6353 -0.0133
v  0.3465 0.6312 0.1668
v  0.0939 0.8051 -0.0237
v  0.3507 0.8092 -0.3032
v  0.6053 0.8051 -0.0237
v  0.3444 0.8051 0.2434
# 22 vertices

vn 0.8183 0.5738 0.0341
vn -0.0440 0.2232 0.9738
vn 0.9995 -0.0298 -0.0124
vn -0.9119 -0.4104 -0.0000
vn 0.0156 -0.3987 -0.9169
vn 0.0151 -0.9998 -0.0097
vn 0.9216 -0.3879 0.0105
vn 0.0041 -0.4349 0.9005
vn -0.8022 0.5966 0.0223
vn -0.9969 0.0768 -0.0192
vn -0.0305 0.9229 0.3839
vn -0.0071 0.5618 -0.8272
vn -0.0261 0.9465 -0.3216
vn -0.0079 0.0815 -0.9966
vn 0.0150 -0.2268 -0.9738
vn 0.9779 -0.2056 0.0393
vn -0.9744 -0.2242 0.0155
vn 0.0017 -0.2374 0.9714
vn -0.9741 -0.2260 0.0016
vn 0.0026 -0.2660 -0.9640
vn 0.9725 -0.2324 0.0149
vn -0.0102 -0.2263 0.9740
# 22 vertex normals

vt 0.3021 0.2510 0.0000
vt 0.3307 0.2510 0.0000
vt 0.2943 0.2157 0.0000
vt 0.2969 0.0000 0.0000
vt 0.2969 0.0275 0.0000
vt 0.2786 0.0275 0.0000
vt 0.3151 0.0275 0.0000
vt 0.3307 0.2549 0.0000
vt 0.3125 0.2314 0.0000
vt 0.3021 0.2549 0.0000
vt 0.2708 0.2549 0.0000
vt 0.2917 0.2275 0.0000
vt 0.2708 0.2510 0.0000
vt 0.2656 0.2078 0.0000
vt 0.2969 0.0039 0.0000
vt 0.2786 0.0471 0.0000
vt 0.2995 0.0471 0.0000
vt 0.3151 0.0039 0.0000
vt 0.3177 0.0471 0.0000
vt 0.2969 0.0745 0.0000
vt 0.2708 0.0745 0.0000
vt 0.3229 0.0745 0.0000
vt 0.2786 0.0039 0.0000
# 23 texture coords

o Object_3
g Object_3
usemtl leon_Material
s off
f 20/31/20 21/32/21 22/33/22 
f 23/34/23 24/35/24 25/36/25 
f 26/34/26 27/35/27 25/37/25 
f 28/31/28 29/33/29 21/32/21 
f 26/36/26 25/35/25 24/34/24 
f 21/38/21 30/39/30 28/40/28 
f 25/35/25 27/34/27 23/37/23 
f 31/41/31 32/42/32 20/40/20 
f 31/41/31 28/40/28 32/42/32 
f 21/38/21 20/40/20 30/39/30 
f 30/39/30 20/40/20 32/42/32 
f 30/39/30 32/42/32 28/40/28 
f 29/33/29 31/43/31 33/44/33 
f 22/33/22 31/43/31 20/31/20 
f 26/45/26 34/46/34 35/47/35 
f 34/46/34 23/45/23 36/47/36 
f 27/48/27 35/47/35 37/49/37 
f 34/46/34 38/50/38 39/51/39 
f 34/46/34 40/50/40 35/47/35 
f 36/47/36 41/52/41 38/50/38 
f 36/47/36 27/48/27 37/49/37 
f 35/47/35 41/52/41 37/49/37 
f 33/44/33 38/50/38 29/33/29 
f 33/44/33 40/50/40 39/51/39 
f 41/52/41 29/33/29 38/50/38 
f 41/52/41 22/33/22 21/32/21 
f 29/33/29 28/31/28 31/43/31 
f 22/33/22 33/44/33 31/43/31 
f 26/45/26 24/53/24 34/46/34 
f 34/46/34 24/53/24 23/45/23 
f 27/48/27 26/45/26 35/47/35 
f 34/46/34 36/47/36 38/50/38 
f 34/46/34 39/51/39 40/50/40 
f 36/47/36 37/49/37 41/52/41 
f 36/47/36 23/45/23 27/48/27 
f 35/47/35 40/50/40 41/52/41 
f 33/44/33 39/51/39 38/50/38 
f 33/44/33 22/33/22 40/50/40 
f 41/52/41 21/32/21 29/33/29 
f 41/52/41 40/50/40 22/33/22 
# 0 polygons - 40 triangles

#
# object Object_7
#

v  0.4523 0.0066 -0.3053
v  0.2328 0.0066 -0.3032
v  0.3509 0.4041 -0.2307
v  0.1790 0.2033 0.3614
v  0.3488 0.4145 0.1399
v  0.1583 0.4145 -0.0527
v  0.0755 0.0066 -0.0775
v  0.4896 0.2033 0.3573
v  0.5993 0.0066 -0.0817
v  0.5248 0.4124 -0.0506
v  0.1625 0.0066 0.6347
v  0.5227 0.0066 0.6368
v  0.2101 0.1267 0.6243
v  0.4792 0.1267 0.6264
# 14 vertices

vn 0.3663 -0.2768 -0.8884
vn -0.4562 -0.3306 -0.8262
vn -0.0555 0.3272 -0.9433
vn -0.5866 0.6924 0.4201
vn 0.0164 0.8237 0.5668
vn -0.8732 0.4873 -0.0103
vn -0.8792 -0.4748 -0.0388
vn 0.5763 0.7088 0.4068
vn 0.8999 -0.4257 -0.0945
vn 0.8566 0.5146 -0.0376
vn -0.5641 -0.4156 0.7135
vn 0.6439 -0.3330 0.6888
vn -0.3913 0.6091 0.6898
vn 0.4147 0.6462 0.6407
# 14 vertex normals

vt 0.5286 0.1255 0.0000
vt 0.5391 0.2118 0.0000
vt 0.6120 0.2078 0.0000
vt 0.5677 0.2471 0.0000
vt 0.5469 0.2039 0.0000
vt 0.6250 0.1686 0.0000
vt 0.5651 0.2157 0.0000
vt 0.5625 0.1255 0.0000
vt 0.6224 0.1686 0.0000
vt 0.5599 0.1255 0.0000
vt 0.5469 0.2863 0.0000
vt 0.6120 0.2784 0.0000
vt 0.5990 0.2863 0.0000
vt 0.6589 0.3412 0.0000
vt 0.5990 0.3490 0.0000
vt 0.5807 0.3294 0.0000
vt 0.6641 0.1255 0.0000
vt 0.6641 0.2824 0.0000
vt 0.6458 0.2196 0.0000
vt 0.6641 0.2078 0.0000
vt 0.6484 0.2157 0.0000
vt 0.6589 0.2941 0.0000
vt 0.5807 0.3020 0.0000
vt 0.6615 0.1529 0.0000
vt 0.6458 0.2745 0.0000
vt 0.6510 0.2745 0.0000
# 26 texture coords

o Object_7
g Object_7
usemtl leon_Material
s off
f 42/54/42 43/54/43 44/55/44 
f 45/56/45 46/57/46 47/58/47 
f 45/59/45 47/60/47 48/61/48 
f 49/62/49 50/63/50 51/60/51 
f 51/64/51 46/57/46 49/65/49 
f 49/65/49 46/57/46 45/56/45 
f 51/60/51 42/54/42 44/55/44 
f 50/66/50 52/67/52 48/68/48 
f 43/69/43 50/66/50 48/68/48 
f 52/70/52 45/59/45 48/61/48 
f 53/71/53 54/72/54 52/73/52 
f 54/74/54 49/65/49 45/56/45 
f 47/60/47 43/54/43 48/61/48 
f 49/62/49 53/70/53 50/63/50 
f 51/60/51 50/63/50 42/54/42 
f 50/66/50 53/75/53 52/67/52 
f 43/69/43 42/76/42 50/66/50 
f 52/70/52 54/77/54 45/59/45 
f 53/71/53 55/78/55 54/72/54 
f 54/74/54 55/79/55 49/65/49 
f 47/60/47 44/55/44 43/54/43 
f 49/62/49 55/77/55 53/70/53 
# 0 polygons - 22 triangles

