# 3ds Max Wavefront OBJ Exporter v0.99 - (c)2007 guruware
# File Created: 18.04.2025 13:56:26

mtllib Leon_Kennedy_brazo_derecho.mtl

#
# object Object_11
#

v  -0.8955 2.5174 0.2654
v  -0.8976 2.5184 0.1681
v  -0.9846 2.8211 0.1256
v  -1.1730 2.3687 -0.1751
v  -1.1688 2.3697 0.1313
v  -1.2040 2.5435 0.1435
v  -1.0902 2.5331 0.1413
v  -1.0819 2.3966 0.1316
v  -1.0798 2.3956 -0.1748
v  -1.1916 2.8397 0.1258
v  -1.0032 2.5256 0.2654
v  -0.9307 2.3481 0.2160
v  -1.0135 2.3694 0.1603
v  -0.9307 2.3632 0.1582
v  -1.0612 2.1717 -0.1461
v  -1.0053 2.2131 -0.1436
v  -1.0053 2.1957 0.1316
v  -1.0053 2.5266 0.1744
v  -1.0156 2.3543 0.2161
v  -0.9846 2.8237 -0.1290
v  -1.0570 2.1543 0.1312
v  -1.1916 2.8423 -0.1268
# 22 vertices

vn 0.7339 0.0912 0.6731
vn 0.7495 -0.0395 -0.6608
vn 0.9983 0.0513 0.0293
vn -0.8023 -0.2148 -0.5569
vn -0.6483 -0.2490 0.7195
vn -0.7606 -0.3620 0.5389
vn 0.8007 -0.5894 0.1071
vn 0.6945 0.1457 0.7046
vn 0.8320 0.0432 -0.5531
vn -0.6130 0.2451 0.7511
vn -0.4867 -0.2067 0.8488
vn 0.5124 -0.7784 0.3627
vn -0.5781 -0.4340 -0.6910
vn 0.4558 -0.5690 -0.6845
vn -0.1071 -0.8311 -0.5456
vn 0.8094 -0.2746 -0.5190
vn 0.7627 -0.1316 0.6332
vn -0.3976 -0.8736 -0.2807
vn -0.6292 -0.6614 0.4083
vn 0.7147 -0.1937 -0.6720
vn -0.1006 -0.8382 0.5360
vn -0.6996 0.0608 -0.7119
# 22 vertex normals

vt 0.5938 0.4980 0.0000
vt 0.6094 0.4980 0.0000
vt 0.6172 0.5686 0.0000
vt 0.6641 0.4549 0.0000
vt 0.6146 0.4549 0.0000
vt 0.6120 0.4980 0.0000
vt 0.6276 0.5176 0.0000
vt 0.6120 0.5176 0.0000
vt 0.6120 0.5725 0.0000
vt 0.6016 0.4549 0.0000
vt 0.6094 0.4588 0.0000
vt 0.6589 0.4078 0.0000
vt 0.6641 0.4627 0.0000
vt 0.6589 0.4196 0.0000
vt 0.6146 0.4157 0.0000
vt 0.6146 0.4980 0.0000
vt 0.6146 0.4627 0.0000
vt 0.6068 0.4980 0.0000
vt 0.6641 0.5647 0.0000
vt 0.6146 0.4039 0.0000
vt 0.6589 0.5686 0.0000
vt 0.6641 0.5216 0.0000
# 22 texture coords

o Object_11
g Object_11
usemtl leon_Material
s off
f 1/1/1 2/2/2 3/3/3 
f 4/4/4 5/5/5 6/6/6 
f 7/7/7 8/8/8 9/9/9 
f 10/3/10 6/6/6 11/1/11 
f 12/10/12 13/11/13 14/11/14 
f 15/12/15 5/5/5 4/4/4 
f 15/12/15 9/13/9 16/14/16 
f 17/15/17 15/12/15 16/14/16 
f 11/1/11 3/3/3 10/3/10 
f 7/16/7 11/1/11 6/6/6 
f 16/14/16 8/17/8 17/15/17 
f 14/11/14 18/18/18 2/2/2 
f 18/18/18 19/10/19 11/1/11 
f 12/10/12 2/2/2 1/1/1 
f 11/1/11 12/10/12 1/1/1 
f 20/19/20 7/7/7 9/9/9 
f 2/2/2 7/16/7 3/3/3 
f 17/15/17 5/5/5 21/20/21 
f 9/13/9 22/21/22 20/21/20 
f 5/5/5 7/16/7 6/6/6 
f 6/6/6 22/21/22 4/4/4 
f 12/10/12 19/10/19 13/11/13 
f 15/12/15 21/20/21 5/5/5 
f 15/12/15 4/4/4 9/13/9 
f 17/15/17 21/20/21 15/12/15 
f 11/1/11 1/1/1 3/3/3 
f 7/16/7 18/18/18 11/1/11 
f 16/14/16 9/13/9 8/17/8 
f 14/11/14 13/11/13 18/18/18 
f 18/18/18 13/11/13 19/10/19 
f 12/10/12 14/11/14 2/2/2 
f 11/1/11 19/10/19 12/10/12 
f 20/19/20 3/22/3 7/7/7 
f 2/2/2 18/18/18 7/16/7 
f 17/15/17 8/17/8 5/5/5 
f 9/13/9 4/4/4 22/21/22 
f 5/5/5 8/17/8 7/16/7 
f 6/6/6 10/3/10 22/21/22 
# 0 polygons - 38 triangles

#
# object Object_10
#

v  -0.9426 3.0590 -0.1432
v  -0.8163 3.5012 0.1471
v  -0.9405 3.0564 0.1094
v  -1.1682 3.5322 0.1474
v  -1.1641 3.0771 0.1096
v  -1.1641 3.0797 -0.1430
v  -1.1682 3.5358 -0.1942
v  -0.8204 3.7271 0.1204
v  -1.0771 3.8979 -0.1760
v  -1.1206 3.7520 0.1207
v  -0.8225 3.8058 -0.2805
v  -0.8163 3.5047 -0.1945
v  -0.8163 3.5677 -0.2829
v  -1.0978 3.8265 -0.2802
v  -1.1496 3.5967 -0.2826
v  -1.1869 2.8390 0.1072
v  -0.9778 2.8230 -0.1477
v  -0.9778 2.8204 0.1070
v  -1.1869 2.8417 -0.1475
v  -0.8245 3.8772 -0.1762
# 20 vertices

vn 0.6837 -0.1935 -0.7037
vn 0.7012 -0.0708 0.7094
vn 0.6879 -0.1786 0.7035
vn -0.7073 0.0826 0.7021
vn -0.7078 0.0027 0.7064
vn -0.7120 -0.0160 -0.7020
vn -0.8677 -0.1425 -0.4762
vn 0.5292 0.4287 0.7322
vn -0.6386 0.7660 -0.0736
vn -0.4230 0.5980 0.6808
vn 0.7023 0.4053 -0.5853
vn 0.7710 -0.3832 -0.5086
vn 0.4648 -0.3976 -0.7911
vn -0.4683 0.3858 -0.7949
vn -0.4960 -0.2881 -0.8192
vn -0.6298 -0.5215 0.5757
vn 0.5074 -0.6496 -0.5662
vn 0.5053 -0.6532 0.5639
vn -0.6259 -0.5180 -0.5831
vn 0.5621 0.7881 -0.2508
# 20 vertex normals

vt 0.3802 0.0588 0.0000
vt 0.3333 0.1686 0.0000
vt 0.3385 0.0588 0.0000
vt 0.4271 0.0588 0.0000
vt 0.3828 0.1686 0.0000
vt 0.3906 0.0588 0.0000
vt 0.3880 0.1686 0.0000
vt 0.4349 0.2235 0.0000
vt 0.3906 0.2588 0.0000
vt 0.3854 0.2235 0.0000
vt 0.4922 0.0627 0.0000
vt 0.4948 0.0039 0.0000
vt 0.4948 0.0157 0.0000
vt 0.4557 0.0627 0.0000
vt 0.4505 0.0157 0.0000
vt 0.4505 0.0039 0.0000
vt 0.4583 0.0745 0.0000
vt 0.4401 0.1686 0.0000
vt 0.6198 0.5725 0.0000
vt 0.6563 0.5255 0.0000
vt 0.6198 0.5255 0.0000
vt 0.4297 0.0588 0.0000
vt 0.4427 0.1686 0.0000
vt 0.4271 0.0000 0.0000
vt 0.3932 0.0588 0.0000
vt 0.3385 0.0000 0.0000
vt 0.3802 0.0000 0.0000
vt 0.4245 0.0000 0.0000
vt 0.3906 0.0000 0.0000
vt 0.3359 0.2235 0.0000
vt 0.3854 0.2627 0.0000
vt 0.4323 0.2627 0.0000
vt 0.4896 0.0745 0.0000
vt 0.6563 0.5725 0.0000
vt 0.3932 0.0000 0.0000
vt 0.3854 0.2588 0.0000
# 36 texture coords

o Object_10
g Object_10
usemtl leon_Material
s off
f 23/23/23 24/24/24 25/25/25 
f 25/26/25 26/27/26 27/28/27 
f 28/23/28 26/24/26 29/29/29 
f 30/30/30 31/31/31 32/32/32 
f 33/33/33 34/34/34 35/35/35 
f 36/36/36 35/35/35 37/37/37 
f 36/36/36 29/38/29 31/39/31 
f 32/32/32 24/40/24 30/30/30 
f 38/41/38 39/42/39 40/43/40 
f 23/44/23 29/27/29 34/45/34 
f 39/46/39 28/47/28 23/44/23 
f 23/23/23 40/48/40 39/49/39 
f 40/50/40 27/28/27 38/51/38 
f 38/48/38 28/23/28 41/49/41 
f 37/37/37 34/34/34 29/38/29 
f 32/52/32 29/29/29 26/24/26 
f 30/52/30 34/29/34 42/53/42 
f 31/39/31 33/33/33 36/36/36 
f 23/23/23 34/29/34 24/24/24 
f 25/26/25 24/40/24 26/27/26 
f 28/23/28 27/25/27 26/24/26 
f 30/30/30 42/54/42 31/31/31 
f 33/33/33 42/55/42 34/34/34 
f 36/36/36 33/33/33 35/35/35 
f 36/36/36 37/37/37 29/38/29 
f 32/32/32 26/27/26 24/40/24 
f 38/41/38 41/56/41 39/42/39 
f 23/44/23 28/47/28 29/27/29 
f 39/46/39 41/57/41 28/47/28 
f 23/23/23 25/25/25 40/48/40 
f 40/50/40 25/26/25 27/28/27 
f 38/48/38 27/25/27 28/23/28 
f 37/37/37 35/35/35 34/34/34 
f 32/52/32 31/58/31 29/29/29 
f 30/52/30 24/24/24 34/29/34 
f 31/39/31 42/55/42 33/33/33 
# 0 polygons - 36 triangles

#
# object Object_9
#

v  -0.5716 4.7537 0.1165
v  -0.4287 4.9220 -0.1365
v  -0.6337 4.9784 0.0173
v  -0.9587 3.7251 -0.1260
v  -0.7993 3.7475 -0.2873
v  -0.7993 3.7446 -0.0057
v  -0.5716 4.7588 -0.3783
v  -0.7952 4.9896 -0.2725
v  -0.6337 4.9813 -0.2725
v  -0.9484 4.7133 0.0208
v  -0.7931 4.9866 0.0195
v  -0.9504 4.7164 -0.2815
v  -1.0747 3.8067 -0.0051
v  -1.0747 3.8096 -0.2866
v  -0.6109 4.0650 -0.1536
v  -0.7268 4.0892 0.1117
v  -0.7268 4.0943 -0.3872
v  -1.0001 4.1556 -0.3100
v  -1.0001 4.1521 0.0275
v  -0.7103 4.0859 0.0247
v  -0.7103 4.0894 -0.3107
v  -1.0767 4.1709 0.0132
v  -1.0767 4.1741 -0.2932
# 23 vertices

vn 0.2538 0.2173 0.9425
vn 0.9071 0.4204 -0.0193
vn 0.2888 0.8406 0.4583
vn -0.2337 -0.9721 0.0227
vn 0.3099 -0.8219 -0.4779
vn 0.3142 -0.8031 0.5063
vn 0.2396 0.2265 -0.9441
vn -0.3525 0.6963 -0.6252
vn 0.2749 0.8417 -0.4648
vn -0.7395 0.2947 0.6053
vn -0.3527 0.6938 0.6279
vn -0.7404 0.2971 -0.6029
vn -0.6439 -0.5718 0.5083
vn -0.6537 -0.5815 -0.4843
vn 0.7524 -0.6582 -0.0268
vn 0.0631 -0.8365 0.5443
vn 0.0602 -0.8241 -0.5633
vn -0.7029 0.0952 -0.7049
vn -0.7018 0.0925 0.7064
vn 0.6720 -0.2382 0.7012
vn 0.6693 -0.2374 -0.7041
vn -0.7895 -0.4486 0.4189
vn -0.7086 -0.4640 -0.5317
# 23 vertex normals

vt 0.0391 0.7412 0.0000
vt 0.0521 0.6902 0.0000
vt 0.0234 0.7216 0.0000
vt 0.3646 0.2157 0.0000
vt 0.3385 0.2275 0.0000
vt 0.3828 0.2275 0.0000
vt 0.0391 0.6392 0.0000
vt 0.0026 0.6627 0.0000
vt 0.0234 0.6627 0.0000
vt 0.2734 0.9333 0.0000
vt 0.2604 0.9569 0.0000
vt 0.2734 0.9961 0.0000
vt 0.3151 0.9961 0.0000
vt 0.3307 0.9569 0.0000
vt 0.3151 0.9333 0.0000
vt 0.0026 0.7216 0.0000
vt 0.3932 0.2275 0.0000
vt 0.4375 0.2275 0.0000
vt 0.4141 0.2157 0.0000
vt 0.0521 0.6941 0.0000
vt 0.0391 0.6471 0.0000
vt 0.0391 0.7294 0.0000
vt 0.3333 0.3137 0.0000
vt 0.3906 0.3137 0.0000
vt 0.4401 0.3176 0.0000
vt 0.2604 0.8314 0.0000
vt 0.2578 0.9569 0.0000
vt 0.2448 0.8353 0.0000
vt 0.2448 0.9922 0.0000
vt 0.2734 0.8314 0.0000
vt 0.3307 0.8314 0.0000
vt 0.3177 0.8314 0.0000
vt 0.3880 0.3176 0.0000
vt 0.2344 0.8314 0.0000
vt 0.2083 0.9569 0.0000
vt 0.2370 0.9961 0.0000
vt 0.0000 0.6627 0.0000
vt 0.3880 0.3137 0.0000
vt 0.2604 0.8353 0.0000
vt 0.3333 0.3176 0.0000
vt 0.2083 0.8314 0.0000
vt 0.0000 0.7176 0.0000
# 42 texture coords

o Object_9
g Object_9
usemtl leon_Material
s off
f 43/59/43 44/60/44 45/61/45 
f 46/62/46 47/63/47 48/64/48 
f 49/65/49 50/66/50 51/67/51 
f 52/68/52 43/69/43 53/70/53 
f 50/71/50 49/72/49 54/73/54 
f 45/61/45 53/74/53 43/59/43 
f 46/62/46 55/64/55 56/63/56 
f 56/75/56 47/76/47 46/77/46 
f 48/76/48 55/75/55 46/77/46 
f 51/67/51 44/60/44 49/65/49 
f 51/67/51 45/61/45 44/60/44 
f 57/78/57 58/79/58 59/80/59 
f 55/64/55 60/81/60 56/63/56 
f 61/82/61 48/76/48 62/83/62 
f 47/76/47 60/82/60 63/83/63 
f 52/68/52 58/84/58 43/69/43 
f 45/61/45 50/66/50 53/74/53 
f 43/85/43 57/86/57 44/87/44 
f 50/71/50 52/68/52 53/70/53 
f 54/73/54 64/88/64 52/68/52 
f 54/73/54 59/89/59 65/90/65 
f 47/63/47 62/91/62 48/64/48 
f 57/92/57 49/93/49 44/94/44 
f 64/95/64 59/80/59 58/79/58 
f 55/64/55 61/96/61 60/81/60 
f 61/82/61 55/75/55 48/76/48 
f 47/76/47 56/75/56 60/82/60 
f 52/68/52 64/88/64 58/84/58 
f 45/61/45 51/67/51 50/66/50 
f 43/85/43 58/97/58 57/86/57 
f 50/71/50 54/73/54 52/68/52 
f 54/73/54 65/90/65 64/88/64 
f 54/73/54 49/72/49 59/89/59 
f 47/63/47 63/98/63 62/91/62 
f 57/92/57 59/99/59 49/93/49 
f 64/95/64 65/100/65 59/80/59 
# 0 polygons - 36 triangles

